<svg width="25" height="19" viewBox="0 0 25 19" fill="none" xmlns="http://www.w3.org/2000/svg">
<path d="M23.0675 3.71772H17.955V3.07109C17.955 1.78746 16.5809 0.743164 14.8919 0.743164H10.1081C8.41908 0.743164 7.04501 1.78746 7.04501 3.07109V3.71772H1.93249C0.866928 3.71772 0 4.37659 0 5.18641V16.7872C0 17.597 0.866928 18.2559 1.93249 18.2559H23.0675C24.1331 18.2559 25 17.597 25 16.7872V5.18641C25 4.37659 24.1331 3.71772 23.0675 3.71772ZM7.77886 3.07109C7.77886 2.09499 8.82373 1.30089 10.1081 1.30089H14.8919C16.1763 1.30089 17.2211 2.09499 17.2211 3.07109V3.71772H16.3894V3.07109C16.3894 2.44353 15.7177 1.93299 14.8919 1.93299H10.1081C9.28234 1.93299 8.61057 2.44353 8.61057 3.07109V3.71772H7.77886V3.07109ZM15.6556 3.71772H9.34442V3.07109C9.34442 2.75107 9.68699 2.49072 10.1081 2.49072H14.8919C15.313 2.49072 15.6556 2.75107 15.6556 3.07109V3.71772ZM23.0675 17.6982H1.93249C1.27158 17.6982 0.733855 17.2895 0.733855 16.7872V12.8812C1.06355 13.08 1.47994 13.1991 1.93249 13.1991H3.91389V14.4075C3.91389 14.8894 4.42965 15.2813 5.0636 15.2813C5.69755 15.2813 6.21331 14.8894 6.21331 14.4075V11.433C6.21331 10.9512 5.69755 10.5592 5.0636 10.5592C4.42965 10.5592 3.91389 10.9512 3.91389 11.433V12.6414H1.93249C1.27158 12.6414 0.733855 12.2327 0.733855 11.7304V5.18641C0.733855 4.68412 1.27158 4.27545 1.93249 4.27545H23.0675C23.7284 4.27545 24.2661 4.68412 24.2661 5.18641V11.7304C24.2661 12.2327 23.7284 12.6414 23.0675 12.6414H21.8933C21.6907 12.6414 21.5264 12.7663 21.5264 12.9203C21.5264 13.0743 21.6907 13.1991 21.8933 13.1991H23.0675C23.5201 13.1991 23.9364 13.08 24.2661 12.8812V16.7872C24.2661 17.2895 23.7284 17.6982 23.0675 17.6982ZM4.64775 13.7347C4.77681 13.7729 4.91698 13.794 5.0636 13.794C5.21023 13.794 5.35039 13.7729 5.47945 13.7347V14.4075C5.47945 14.5818 5.29291 14.7236 5.0636 14.7236C4.8343 14.7236 4.64775 14.5818 4.64775 14.4075V13.7347ZM5.47945 12.9203C5.47945 13.0945 5.29291 13.2363 5.0636 13.2363C4.8343 13.2363 4.64775 13.0945 4.64775 12.9203V11.433C4.64775 11.2587 4.8343 11.1169 5.0636 11.1169C5.29291 11.1169 5.47945 11.2587 5.47945 11.433V12.9203Z" fill="black"/>
<path d="M19.545 10.5596C18.9111 10.5596 18.3953 10.9515 18.3953 11.4333V12.6418H7.41194C7.2093 12.6418 7.04501 12.7666 7.04501 12.9206C7.04501 13.0746 7.2093 13.1995 7.41194 13.1995H18.3953V14.4079C18.3953 14.8897 18.9111 15.2817 19.545 15.2817C20.179 15.2817 20.6947 14.8897 20.6947 14.4079V11.4333C20.6947 10.9515 20.179 10.5596 19.545 10.5596ZM19.1292 11.4333C19.1292 11.2591 19.3157 11.1173 19.545 11.1173C19.7743 11.1173 19.9609 11.2591 19.9609 11.4333V12.9206C19.9609 13.0949 19.7743 13.2367 19.545 13.2367C19.3157 13.2367 19.1292 13.0949 19.1292 12.9206V11.4333ZM19.545 14.724C19.3157 14.724 19.1292 14.5822 19.1292 14.4079V13.735C19.2582 13.7732 19.3984 13.7944 19.545 13.7944C19.6916 13.7944 19.8318 13.7732 19.9609 13.735V14.4079C19.9609 14.5822 19.7743 14.724 19.545 14.724Z" fill="black"/>
<path d="M10.1517 12.0089H14.8483C15.051 12.0089 15.2153 11.884 15.2153 11.73C15.2153 11.576 15.051 11.4512 14.8483 11.4512H10.1517C9.94901 11.4512 9.78473 11.576 9.78473 11.73C9.78473 11.884 9.94901 12.0089 10.1517 12.0089Z" fill="black"/>
</svg>
